<?xml version="1.0" encoding="utf-8"?>
<!-- Generator: Adobe Illustrator 24.2.1, SVG Export Plug-In . SVG Version: 6.00 Build 0)  -->
<svg version="1.1" id="Layer_1" xmlns="http://www.w3.org/2000/svg" xmlns:xlink="http://www.w3.org/1999/xlink" x="0px" y="0px"
	 viewBox="0 0 158 60" style="enable-background:new 0 0 158 60;" xml:space="preserve">
<style type="text/css">
	.st0{fill:#1D1D1B;}
</style>
<g>
	<g>
		<path class="st0" d="M44.6,41.29c-1.15,4.29-2.05,8.78-2.71,13.46c-9.34-0.29-15.99-0.44-19.94-0.44c-3.9,0-10.46,0.15-19.68,0.44
			c-0.39,0-0.59-0.34-0.59-1.03c0-0.61,0.2-0.94,0.59-0.99c2.95-0.34,4.96-0.89,6.02-1.65c1.06-0.76,1.59-2.27,1.59-4.54V12.1
			c0-1.71-0.21-2.91-0.64-3.61C8.82,7.8,8.07,7.25,6.99,6.85c-1.07-0.4-2.65-0.73-4.72-0.97c-0.39,0-0.59-0.34-0.59-1.01
			s0.2-1.01,0.59-1.01c1.63,0,3.58,0.07,5.85,0.22c2.17,0.15,4,0.22,5.49,0.22c1.49,0,3.3-0.07,5.45-0.22
			c2.24-0.15,4.18-0.22,5.82-0.22c0.39,0,0.59,0.34,0.59,1.01s-0.2,1.01-0.59,1.01c-2.05,0.24-3.61,0.57-4.68,0.97
			c-1.07,0.4-1.82,0.95-2.23,1.63c-0.41,0.68-0.62,1.89-0.62,3.62v35.55c0,2.88,1.41,4.32,4.24,4.32h7.24c3,0,5.54-0.8,7.61-2.4
			c2.07-1.6,4.12-4.58,6.15-8.94c0.1-0.2,0.33-0.29,0.69-0.29c0.32,0,0.62,0.1,0.9,0.29C44.46,40.82,44.6,41.04,44.6,41.29z"/>
		<path class="st0" d="M82.31,52.35c0,0.52-0.2,0.81-0.59,0.86c-4.44,0.48-7.48,1.33-9.11,2.53c-0.34,0.27-0.68,0.4-1.02,0.4
			c-0.49,0-0.73-0.2-0.73-0.59l0.29-4.61c-3.61,3.27-6.88,4.9-9.8,4.9c-3.34,0-5.94-0.95-7.81-2.84c-1.86-1.89-2.8-4.46-2.8-7.71
			V31.6c0-2.17-0.28-3.61-0.84-4.32c-0.56-0.71-1.67-1.06-3.33-1.06c-0.32,0-0.67,0.01-1.06,0.04c-0.36,0-0.55-0.31-0.55-0.93
			c0-0.77,0.2-1.15,0.58-1.15c2.82,0,6.52-0.55,11.09-1.65c0.44,0,0.66,0.31,0.66,0.91v20.12c0,2.76,0.53,4.76,1.58,6.02
			c1.05,1.26,2.7,1.88,4.95,1.88c1.44,0,2.71-0.27,3.81-0.81c1.1-0.54,2.27-1.49,3.52-2.86V31.6c0-2.15-0.29-3.58-0.86-4.3
			c-0.57-0.72-1.71-1.08-3.42-1.08c-0.29,0-0.64,0.01-1.02,0.04c-0.37,0-0.55-0.31-0.55-0.93c0-0.77,0.2-1.15,0.59-1.15
			c2.83,0,6.53-0.55,11.12-1.65c0.44,0,0.66,0.31,0.66,0.91v23.34c0,1.68,0.24,2.81,0.71,3.38c0.48,0.57,1.59,0.98,3.35,1.23
			C82.12,51.38,82.31,51.7,82.31,52.35z"/>
		<path class="st0" d="M122.77,53.72c0,0.68-0.2,1.03-0.59,1.03c-0.97,0-2.17-0.07-3.58-0.22c-1.56-0.15-2.93-0.22-4.12-0.22
			c-1.21,0-2.61,0.07-4.19,0.22c-1.44,0.15-2.64,0.22-3.61,0.22c-0.39,0-0.58-0.34-0.58-1.03c0-0.61,0.2-0.94,0.59-0.99
			c1.68-0.2,2.79-0.67,3.31-1.43c0.52-0.76,0.79-2.34,0.79-4.76V34.34c0-2.73-0.54-4.73-1.61-6c-1.07-1.27-2.73-1.9-4.97-1.9
			c-1.41,0-2.66,0.27-3.75,0.8c-1.09,0.54-2.25,1.49-3.49,2.85v16.46c0,2.41,0.26,4,0.79,4.76c0.52,0.76,1.63,1.23,3.31,1.43
			c0.39,0.05,0.59,0.38,0.59,0.99c0,0.68-0.2,1.03-0.59,1.03c-1,0-2.22-0.07-3.66-0.22c-1.58-0.15-2.97-0.22-4.17-0.22
			c-1.17,0-2.54,0.07-4.1,0.22c-1.44,0.15-2.66,0.22-3.66,0.22c-0.39,0-0.59-0.34-0.59-1.03c0-0.61,0.2-0.94,0.59-0.99
			c2.1-0.27,3.45-0.77,4.06-1.52c0.61-0.74,0.91-2.29,0.91-4.66V33.05c0-1.95-0.25-3.23-0.75-3.83c-0.5-0.61-1.61-1.01-3.35-1.21
			c-0.39,0-0.59-0.32-0.59-0.97c0-0.6,0.2-0.9,0.59-0.9c2.41-0.61,4.42-1.3,6.03-2.07c1.61-0.77,2.62-1.4,3.04-1.88
			c0.24-0.29,0.51-0.44,0.8-0.44c0.68,0,1.02,0.2,1.02,0.59l-0.29,4.61c3.51-3.27,6.77-4.9,9.79-4.9c3.31,0,5.9,0.95,7.76,2.85
			c1.86,1.9,2.79,4.46,2.79,7.68v13.97c0,2.39,0.3,3.95,0.9,4.68c0.6,0.73,1.93,1.23,4,1.5C122.57,52.78,122.77,53.11,122.77,53.72z
			"/>
		<path class="st0" d="M149.29,55.55c-1.36,0-2.54-0.33-3.55-1c-1-0.67-1.69-1.58-2.05-2.73c-2.61,2.68-6.03,4.02-10.24,4.02
			c-2.2,0-3.99-0.68-5.38-2.03c-1.39-1.35-2.09-3.04-2.09-5.07c0-5,5.93-9.05,17.78-12.14l0.22-5.71v-0.18
			c0-1.76-0.43-3.15-1.3-4.19c-0.86-1.04-2.02-1.55-3.46-1.55c-1.44,0-2.66,0.35-3.66,1.04c-1,0.7-1.51,1.57-1.54,2.62
			c-0.03,1.56-0.43,2.78-1.23,3.66c-0.79,0.88-1.85,1.32-3.17,1.32c-0.78,0-1.41-0.23-1.9-0.69c-0.49-0.46-0.73-1.08-0.73-1.87
			c0-1.88,1.71-3.85,5.12-5.91c3.41-2.06,6.59-3.09,9.51-3.09c2.63,0,4.77,0.78,6.4,2.34c1.63,1.56,2.45,3.66,2.45,6.29v0.44
			l-0.55,16.53v0.26c0,2.56,0.83,3.84,2.49,3.84c0.8,0,1.74-0.49,2.81-1.46l0.26-0.07c0.2,0,0.38,0.13,0.55,0.38
			c0.17,0.26,0.26,0.53,0.26,0.82c0,0.71-0.74,1.57-2.21,2.6C152.62,55.04,151.02,55.55,149.29,55.55z M143.69,39.05
			c-7.1,1.61-10.65,4.28-10.65,8c0,3.47,1.34,5.21,4.01,5.21c1.29,0,2.56-0.32,3.81-0.97c1.25-0.65,2.1-1.45,2.53-2.4L143.69,39.05z
			"/>
	</g>
</g>
</svg>
