<?xml version="1.0" encoding="utf-8"?>
<!-- Generator: Adobe Illustrator 24.2.1, SVG Export Plug-In . SVG Version: 6.00 Build 0)  -->
<svg version="1.1" id="Layer_1" xmlns="http://www.w3.org/2000/svg" xmlns:xlink="http://www.w3.org/1999/xlink" x="0px" y="0px"
	 viewBox="0 0 64.64 17.23" style="enable-background:new 0 0 64.64 17.23;" xml:space="preserve">
<style type="text/css">
	.st0{fill:#231F20;}
</style>
<g>
	<g>
		<g>
			<g>
				<g>
					<path class="st0" d="M12.14,5.79c-0.69,0.46-1.08,1.06-1.05,1.36c0.01,0.14,0.04,0.24,0.19,0.39c0.36,0.33,0.84,0.47,1.53,0.48
						c0.94,0.01,2.15-0.31,3.41-0.71c0.01-0.1,0.02-0.19,0.02-0.29c0-0.15-0.02-0.29-0.04-0.43c-0.3-1.3-0.89-1.54-1.76-1.59
						c-0.01,0-0.01,0-0.01,0C13.7,5,12.81,5.33,12.14,5.79 M44.08,5.69c-1.18,1.04-2.07,2.49-2.07,4.13c0,0.18,0.01,0.36,0.03,0.55
						c2.21-1.01,4.46-2.52,5.71-3.85c0.73-0.74,1.08-1.44,1.06-1.71c0-0.04-0.01-0.08-0.01-0.1c-0.16-0.45-0.41-0.6-1.1-0.64h-0.03
						C46.74,4.07,45.26,4.66,44.08,5.69 M3.02,13.2c-0.9-0.89-1.31-2.09-1.31-3.33c0-2.93,2.24-6.26,6.26-7.26v0
						c0.34-0.09,0.7,0.1,0.79,0.42c0.1,0.32-0.11,0.65-0.45,0.73C4.9,4.59,3,7.49,3.01,9.88c0.06,2,1.14,3.52,4.02,3.56
						c0.71,0,1.54-0.1,2.49-0.35c1.13-0.28,2.89-1.16,4.3-2.31c0.79-0.63,1.45-1.35,1.89-2.06C14.72,9,13.74,9.21,12.82,9.21
						c-0.89,0-1.79-0.21-2.45-0.83C10,8.05,9.79,7.59,9.8,7.15c0.03-0.95,0.71-1.72,1.57-2.32c0.87-0.59,1.96-1.02,3.07-1.02
						c1.36-0.05,2.75,0.83,3.04,2.57c0.03,0.16,0.05,0.33,0.05,0.49c1.49-0.5,2.92-1,4.15-1.01c0.58,0,1.19,0.13,1.64,0.56
						c0.44,0.42,0.62,1.02,0.62,1.73c0,0.81-0.22,1.83-0.68,3.17c0.59-0.56,1.24-1.2,1.9-1.81c1.63-1.44,3.25-2.86,4.98-2.92
						c1.91-0.03,2.92,0.96,3.6,1.92c0.72,0.98,1.33,1.98,2.86,2.76c0.32,0.16,0.74,0.25,1.25,0.25c0.84,0.01,1.88-0.23,2.98-0.64
						c-0.06-0.36-0.1-0.71-0.1-1.06c0-2.05,1.09-3.78,2.47-4.99c1.39-1.2,3.06-1.94,4.52-1.95c1.01-0.03,2.07,0.49,2.35,1.53
						c0.04,0.13,0.05,0.27,0.05,0.4c-0.02,0.87-0.59,1.65-1.39,2.51c-0.81,0.84-1.9,1.7-3.12,2.49c-1.03,0.66-2.15,1.27-3.27,1.76
						c0.04,0.09,0.07,0.19,0.11,0.28c0.53,1.17,1.34,1.53,2.72,1.56c2.12,0.02,5.29-1.22,8.41-2.59c3.13-1.37,6.22-2.86,8.57-3.3
						c0.35-0.06,0.69,0.14,0.76,0.47c0.07,0.33-0.16,0.64-0.51,0.7c-2.02,0.36-5.13,1.82-8.27,3.2c-3.16,1.38-6.36,2.69-8.96,2.71
						c-1.68,0.03-3.26-0.68-3.92-2.32c-0.03-0.08-0.07-0.16-0.09-0.24c-1.16,0.41-2.29,0.66-3.32,0.67c-0.67,0-1.31-0.11-1.88-0.39
						c-1.85-0.93-2.65-2.24-3.31-3.14c-0.71-0.91-1.07-1.37-2.53-1.4c-0.81-0.06-2.55,1.14-4.06,2.58
						c-1.57,1.43-2.99,2.98-3.98,3.61c-0.24,0.15-0.54,0.14-0.77-0.03c-0.22-0.16-0.3-0.44-0.2-0.69c1.09-2.51,1.52-4.17,1.52-5.1
						c-0.01-0.55-0.13-0.8-0.25-0.9c-0.11-0.11-0.31-0.19-0.71-0.19c-0.88-0.01-2.41,0.5-4.01,1.04c-0.11,0.04-0.22,0.07-0.33,0.11
						c-0.42,1.32-1.48,2.49-2.68,3.47c-1.56,1.26-3.4,2.2-4.8,2.56c-1.04,0.26-1.98,0.39-2.84,0.39H7
						C5.28,14.63,3.91,14.1,3.02,13.2"/>
				</g>
			</g>
		</g>
	</g>
</g>
</svg>
