<?xml version="1.0" encoding="utf-8"?>
<!-- Generator: Adobe Illustrator 24.2.1, SVG Export Plug-In . SVG Version: 6.00 Build 0)  -->
<svg version="1.1" id="Layer_1" xmlns="http://www.w3.org/2000/svg" xmlns:xlink="http://www.w3.org/1999/xlink" x="0px" y="0px"
	 viewBox="0 0 122.64 21.23" style="enable-background:new 0 0 122.64 21.23;" xml:space="preserve">
<style type="text/css">
	.st0{fill:#231F20;}
</style>
<g>
	<g>
		<g>
			<path class="st0" d="M4.23,16.06c-0.72,0-1.35-0.27-1.83-0.74c-0.68-0.69-0.67-1.46-0.67-2.79c0-1.34-0.01-2.11,0.67-2.8
				c0.48-0.48,1.1-0.74,1.83-0.74c1.28,0,2.24,0.75,2.48,2.14H5.63C5.47,10.41,5,9.93,4.23,9.93c-0.41,0-0.78,0.16-1.03,0.42
				c-0.34,0.37-0.42,0.77-0.42,2.17c0,1.39,0.08,1.8,0.42,2.17c0.24,0.26,0.62,0.42,1.03,0.42c0.77,0,1.25-0.49,1.42-1.19h1.06
				C6.48,15.3,5.49,16.06,4.23,16.06"/>
			<path class="st0" d="M13.12,10.61l1.06,3.09h-2.14L13.12,10.61z M12.68,9.04L10.12,16h1.13l0.48-1.4h2.74l0.48,1.4h1.12
				l-2.55-6.96H12.68z"/>
			<path class="st0" d="M22.58,9.99h-1.53v2.32h1.53c0.73,0,1.23-0.42,1.23-1.15C23.81,10.41,23.31,9.99,22.58,9.99 M22.64,13.26
				h-1.58V16H20V9.04h2.64c1.36,0,2.23,0.9,2.23,2.11S23.99,13.26,22.64,13.26"/>
			<rect x="29.08" y="9.04" class="st0" width="1.06" height="6.96"/>
			<polygon class="st0" points="34.27,9.04 34.27,9.99 36.19,9.99 36.19,16 37.24,16 37.24,9.99 39.16,9.99 39.16,9.04 			"/>
			<path class="st0" d="M44.88,10.61l1.05,3.09h-2.14L44.88,10.61z M44.43,9.04L41.88,16H43l0.48-1.4h2.74L46.7,16h1.12l-2.55-6.96
				H44.43z"/>
			<polygon class="st0" points="51.75,9.04 51.75,16 56.16,16 56.16,15.05 52.81,15.05 52.81,9.04 			"/>
			<polygon class="st0" points="65.45,9.04 65.45,13.92 62.24,9.04 61.27,9.04 61.27,16 62.33,16 62.33,11.1 65.54,16 66.51,16 
				66.51,9.04 			"/>
			<path class="st0" d="M73.43,10.61l1.06,3.09h-2.14L73.43,10.61z M72.99,9.04L70.43,16h1.12l0.48-1.4h2.75l0.48,1.4h1.12
				l-2.55-6.96H72.99z"/>
			<polygon class="st0" points="79.11,9.04 79.11,9.99 81.02,9.99 81.02,16 82.08,16 82.08,9.99 83.99,9.99 83.99,9.04 			"/>
			<path class="st0" d="M90.52,16.06c-1.42,0-2.49-0.97-2.49-2.41V9.04h1.06v4.56c0,0.93,0.57,1.5,1.44,1.5
				c0.87,0,1.45-0.58,1.45-1.5V9.04h1.05v4.61C93.01,15.09,91.93,16.06,90.52,16.06"/>
			<path class="st0" d="M100.28,9.99h-1.56v2.18h1.56c0.7,0,1.18-0.4,1.18-1.09C101.46,10.4,100.98,9.99,100.28,9.99 M101.5,16
				l-1.47-2.93h-1.32V16h-1.05V9.04h2.7c1.32,0,2.16,0.85,2.16,2.03c0,1-0.6,1.63-1.38,1.85l1.6,3.08H101.5z"/>
			<path class="st0" d="M109.17,10.61l1.06,3.09h-2.14L109.17,10.61z M108.72,9.04L106.17,16h1.12l0.48-1.4h2.74L111,16h1.12
				l-2.55-6.96H108.72z"/>
			<polygon class="st0" points="116.04,9.04 116.04,16 120.45,16 120.45,15.05 117.1,15.05 117.1,9.04 			"/>
			<rect x="1.72" y="3.82" class="st0" width="118.72" height="1.06"/>
		</g>
	</g>
</g>
</svg>
