<?xml version="1.0" encoding="utf-8"?>
<!-- Generator: Adobe Illustrator 24.2.1, SVG Export Plug-In . SVG Version: 6.00 Build 0)  -->
<svg version="1.1" id="Layer_1" xmlns="http://www.w3.org/2000/svg" xmlns:xlink="http://www.w3.org/1999/xlink" x="0px" y="0px"
	 viewBox="0 0 109.07 30" style="enable-background:new 0 0 109.07 30;" xml:space="preserve">
<style type="text/css">
	.st0{fill:#231F20;}
</style>
<g>
	<g>
		<g>
			<g>
				<g>
					<path class="st0" d="M99.7,14.51c-0.03,0.67-0.53,1.01-1,1.01c-0.42,0-0.99-0.28-0.99-1.05c0-0.77,0.69-1.01,1.02-1.01
						C99.43,13.46,99.7,14.17,99.7,14.51z M99.7,18.33c-0.03,0.66-0.53,1.01-1,1.01c-0.42,0-0.99-0.28-0.99-1.04
						c0-0.78,0.69-1.02,1.02-1.02C99.43,17.28,99.7,18.01,99.7,18.33z"/>
				</g>
			</g>
			<path class="st0" d="M13.63,4.2c0.32,0,0.61,0.25,0.61,0.42c0,0.2-0.3,0.39-0.57,0.44c-0.37,0.05-1.74,0.2-2.17,0.22
				c-0.17,0-0.39,0.3-0.41,0.59c-0.08,1.38-0.1,4.23-0.1,7.93c0,2.66,0.1,5.69,0.17,9.63c0,0.74,0.18,1.21,0.42,1.23
				c0.72,0.05,2.11,0.25,2.24,0.25c0.15,0,0.64,0.22,0.64,0.44c0,0.2-0.47,0.44-0.77,0.42h-1.82c-0.69,0-1.94,0.02-2.15,0.02
				c-0.14,0-0.34-0.2-0.34-0.82v-14.4c0-3.89-0.02-5.47-0.02-5.76c0-0.17,0.07-0.45,0.17-0.52c0.07-0.07,0.29-0.07,0.56-0.07
				C11.51,4.23,13.24,4.2,13.63,4.2"/>
			<path class="st0" d="M88.34,25.8c-0.37,0-0.69-0.24-0.69-0.41c0-0.17,0.39-0.42,0.73-0.47c0.48-0.08,1.63-0.22,2.05-0.25
				c0.17,0,0.32-0.27,0.35-0.56c0.07-1.35,0.1-4.18,0.1-7.91c0-2.66-0.1-5.66-0.17-9.63c0-0.59-0.13-1.21-0.42-1.24
				c-0.76-0.05-1.84-0.2-2.19-0.25c-0.22-0.02-0.64-0.24-0.64-0.41c0-0.22,0.44-0.52,0.79-0.47c0.2,0,1.06,0.02,1.74,0.02
				c0.7,0,2-0.02,2.18-0.02c0.14,0,0.34,0.19,0.34,0.81v14.4c0,3.86,0.02,5.54,0.02,5.84c0,0.17-0.07,0.37-0.17,0.44
				c-0.07,0.07-0.3,0.07-0.56,0.07C90.35,25.78,88.73,25.8,88.34,25.8"/>
			<g>
				<path class="st0" d="M23.01,8.54c0.17,0.45,0.51,1.41,0.75,2.11c1.04,2.92,2.32,6.33,2.7,7.27c0.62,1.53,1.04,1.72,1.67,1.9
					c0.32,0.1,0.49,0.21,0.49,0.34c0,0.13-0.19,0.28-0.62,0.28c-0.47,0-1.88-0.08-2.47-0.08c-0.62,0-1.35,0.04-1.84,0.04
					c-0.38,0-0.6-0.11-0.6-0.28c0-0.09,0.13-0.25,0.49-0.32c0.78-0.19,0.79-0.49,0.76-0.79c-0.04-0.49-0.44-1.55-0.87-2.75
					c-0.02-0.08-0.23-0.28-0.45-0.28c-1.99-0.02-2.9,0.04-3.16,0.06c-0.06,0-0.17,0.13-0.21,0.19c-0.6,1.51-0.81,2.36-0.81,2.73
					c0,0.38,0.19,0.64,0.88,0.83c0.38,0.1,0.55,0.21,0.55,0.38c0,0.15-0.26,0.24-0.56,0.24c-0.34,0-0.81-0.04-1.51-0.04
					c-0.73,0-1.58,0.08-1.87,0.08c-0.43,0-0.55-0.11-0.55-0.23c0-0.13,0.08-0.26,0.47-0.38c0.96-0.26,1.17-0.56,1.72-1.67
					c0.45-0.91,2.48-6.27,3.28-8.14c0.02-0.04,0.09-0.26,0.09-0.34c0-0.06-0.02-0.11,0.04-0.15c0.26-0.26,0.84-0.96,0.98-1.17
					c0.11-0.17,0.24-0.25,0.33-0.25C22.79,8.12,22.86,8.16,23.01,8.54z M23.05,14.92c-0.28-0.89-1.11-3.17-1.37-3.79
					c-0.04-0.13-0.15-0.1-0.21,0.06c-0.34,0.91-1.24,3.28-1.35,3.73c-0.02,0.09,0.05,0.19,0.13,0.19c0.73-0.02,2.13-0.04,2.73-0.04
					C22.99,15.07,23.06,15,23.05,14.92z"/>
				<path class="st0" d="M29.81,13.45c0.71-0.23,1.56-0.51,1.9-0.71c0.21-0.13,0.4-0.23,0.45-0.23c0.11,0,0.22,0.17,0.22,0.23
					c0,0.34-0.06,0.7-0.06,1.05c0,0.06,0.09,0.13,0.15,0.08c0.58-0.62,1.41-1.17,2-1.17c0.83,0,1.09,0.51,1.09,0.77
					c0,0.06-0.06,0.21-0.11,0.31c-0.21,0.32-0.79,1.09-0.92,1.11c-0.08,0-0.29-0.02-0.34-0.08c-0.21-0.19-0.83-0.53-1.19-0.53
					c-0.17,0-0.36,0.02-0.47,0.11c-0.12,0.09-0.17,0.21-0.17,0.37c0,0.38,0.1,3.65,0.12,3.94c0.04,0.58,0.17,0.92,0.43,0.98
					c0.19,0.04,0.59,0.17,0.81,0.25c0.3,0.09,0.38,0.23,0.38,0.3c0,0.15-0.23,0.22-0.53,0.22c-0.56,0-1.54-0.09-2.65-0.09
					c-0.4,0-0.79,0.06-1.25,0.06c-0.2,0-0.45-0.06-0.45-0.26c0-0.13,0.29-0.23,0.43-0.29c0.68-0.24,0.72-0.45,0.74-1.58
					c0-0.47,0-1.86,0-3.1c0-0.34-0.04-0.62-0.15-0.72c-0.3-0.24-0.68-0.58-0.68-0.66C29.56,13.77,29.6,13.51,29.81,13.45z"/>
				<path class="st0" d="M42.84,19.76c-0.82,0.6-2.06,0.83-2.77,0.83c-0.7,0-1.9-0.21-2.53-0.4c-0.07-0.04-0.21-0.02-0.4,0.08
					c-0.09,0.04-0.21,0.08-0.24,0.08c-0.08,0-0.21-0.11-0.21-0.25c0.1-1.47,0.11-4.75,0.11-6.29c0-1.79-0.02-4.18-0.06-4.46
					c-0.02-0.11-0.09-0.32-0.39-0.58C36,8.5,35.81,8.42,35.81,8.33c0-0.13,0.21-0.32,0.32-0.36c0.65-0.17,1.41-0.32,2.04-0.64
					c0.36-0.18,0.53-0.24,0.62-0.24c0.06,0,0.21,0.19,0.21,0.3c-0.05,1.34-0.17,2.88-0.17,4.35c0,0.43,0,1.02,0.02,1.43
					c0,0.09,0.08,0.09,0.08,0.09c0.6-0.38,1.47-0.56,2-0.56c0.96,0,1.81,0.3,2.41,0.83c0.83,0.71,1.28,1.7,1.28,2.94
					C44.61,17.99,43.72,19.1,42.84,19.76z M41.54,14.47c-0.34-0.41-1.04-0.81-1.79-0.81c-0.32,0-0.56,0.08-0.74,0.15
					c-0.05,0.04-0.13,0.15-0.15,0.21c-0.02,0.28-0.04,0.66-0.04,1.05c0,1.43,0.08,2.62,0.17,3.28c0.02,0.21,0.15,0.73,0.53,1.08
					c0.38,0.39,0.87,0.51,1.15,0.51c0.17,0,0.52-0.17,0.92-0.57c0.48-0.56,0.76-1.62,0.76-2.52C42.35,16.09,42.07,15.09,41.54,14.47
					z"/>
				<path class="st0" d="M54.25,16.61c0,1.6-0.98,2.75-1.68,3.2c-0.77,0.55-1.74,0.77-2.6,0.77c-0.85,0-1.9-0.4-2.6-0.98
					c-0.81-0.66-1.41-1.84-1.41-2.9c0-1.32,0.58-2.32,1.3-2.92c0.56-0.49,1.62-1.09,3.01-1.09C52.16,12.7,54.25,14.17,54.25,16.61z
					 M48.99,13.73c-0.43,0.39-0.77,1.22-0.77,2.47c0,0.62,0.08,1.34,0.23,1.81c0.4,1.32,1.27,1.96,2.06,1.96
					c0.19,0,0.55-0.15,0.83-0.47c0.4-0.51,0.7-1.51,0.7-2.58c0-0.79-0.17-2.02-0.75-2.84c-0.34-0.43-0.83-0.76-1.36-0.76
					C49.6,13.32,49.3,13.45,48.99,13.73z"/>
				<path class="st0" d="M55.81,7.88c0.81-0.23,1.72-0.38,2.45-0.85c0.06-0.04,0.23,0.11,0.23,0.19c-0.06,0.68-0.15,4.46-0.15,7.29
					c0,1.47,0.02,3.96,0.08,4.52c0.06,0.43,0.13,0.66,0.84,0.87c0.27,0.09,0.4,0.19,0.4,0.32c0,0.17-0.3,0.23-0.51,0.23
					c-0.45,0-1.53-0.08-1.86-0.08c-0.43,0-1.36,0.08-1.76,0.08c-0.41,0-0.55-0.13-0.55-0.23c0-0.21,0.24-0.28,0.45-0.32
					c0.63-0.17,0.74-0.45,0.79-1.43c0.06-0.83,0.11-2.96,0.11-5.93c0-0.98-0.02-2.75-0.02-3.3c0-0.23-0.11-0.34-0.51-0.64
					c-0.24-0.21-0.33-0.31-0.33-0.4C55.48,8.1,55.6,7.95,55.81,7.88z"/>
				<path class="st0" d="M66.38,13.49c0.43,0.42,0.72,1,0.72,1.66c0,0.13-0.19,0.45-0.41,0.45c-0.22,0-3.22,0-4.11,0
					c-0.09,0-0.19,0.05-0.21,0.13c-0.06,0.15-0.07,0.45-0.07,0.68c0,0.42,0.22,1.28,0.58,1.75c0.48,0.6,1.26,0.94,2.09,0.94
					c0.8,0,1.34-0.19,1.7-0.66c0.08-0.11,0.17-0.22,0.24-0.22c0.08,0,0.17,0.13,0.17,0.24c0,0.11-0.06,0.32-0.15,0.47
					c-0.58,0.9-1.47,1.64-3.01,1.64c-2.17,0-3.48-1.64-3.48-3.79c0-1.51,0.83-3.01,2.39-3.73c0.47-0.23,1.04-0.36,1.54-0.36
					C65.11,12.7,65.89,13,66.38,13.49z M62.48,14.83c-0.02,0.1,0.06,0.19,0.13,0.19c0.49,0.02,1.08,0,2.02,0
					c0.3,0,0.66-0.19,0.66-0.64c0-0.53-0.53-1.15-1.05-1.15C63.44,13.23,62.71,13.98,62.48,14.83z"/>
				<path class="st0" d="M73.93,12.78c0.07,0.02,0.13-0.09,0.15-0.17c0.09-0.56,0.02-3.07-0.04-3.54c-0.02-0.15-0.02-0.46-0.79-0.79
					c-0.17-0.08-0.27-0.15-0.27-0.19c0-0.1,0.23-0.34,0.34-0.36c0.49-0.07,1.84-0.34,2.37-0.55c0.13-0.06,0.24-0.09,0.36-0.09
					c0.07,0,0.19,0.19,0.17,0.37c-0.08,0.72-0.17,2.92-0.17,7.16c0,3.78,0.04,3.27,0.05,3.64c0,1.15,0.15,1.32,0.32,1.32
					c0.15,0,0.71-0.07,0.94-0.07c0.08,0,0.12,0.13,0.12,0.15c0,0.11-0.3,0.47-0.4,0.51c-0.51,0.07-1.64,0.24-1.99,0.37
					c-0.46,0.15-0.74,0.21-0.83,0.21c-0.09,0-0.22-0.15-0.22-0.26c0-0.15,0.04-0.43,0.04-0.72c0-0.09-0.1-0.15-0.13-0.13
					c-0.66,0.55-1.62,0.89-2.31,0.89c-0.98,0-1.7-0.38-2.26-0.91c-0.75-0.7-1.04-1.75-1.04-2.65c0-1.94,1.11-2.96,2.04-3.5
					c0.72-0.43,1.84-0.71,2.52-0.71C73.36,12.74,73.63,12.74,73.93,12.78z M71.1,13.98c-0.51,0.55-0.7,1.64-0.7,2.3
					c0,1.6,1.07,3.14,2.52,3.14c0.36,0,0.66-0.08,0.9-0.29c0.08-0.03,0.26-0.6,0.26-0.88c0.02-0.66,0.04-2.55-0.02-3.26
					c-0.02-0.1-0.17-0.57-0.34-0.76c-0.53-0.62-1.15-0.83-1.53-0.83C71.91,13.41,71.5,13.58,71.1,13.98z"/>
				<path class="st0" d="M83.62,13.71c0.23,0.3,0.42,0.77,0.42,1.62c0,0.73-0.08,2.98-0.08,3.18c0,0.53,0.38,0.76,0.7,0.76
					c0.09,0,0.47-0.15,0.66-0.23c0.06-0.04,0.08-0.02,0.12,0.02c0.03,0.07,0.05,0.21,0.05,0.27c0,0.35-0.88,1.28-1.93,1.28
					c-0.55,0-1.14-0.17-1.42-0.9c-0.02-0.08-0.13-0.11-0.17-0.08c-0.47,0.34-1.24,0.68-1.49,0.79c-0.21,0.08-0.58,0.15-0.83,0.15
					c-0.7,0-1.45-0.85-1.45-1.9c0-0.34,0.15-0.7,0.34-0.96c0.19-0.26,0.51-0.37,0.68-0.45c0.41-0.17,2.13-0.64,2.56-0.77
					c0.23-0.08,0.34-0.2,0.34-0.28c0.02-0.17,0.06-1.2,0.04-1.45c-0.02-0.45-0.42-1.21-1.26-1.21c-0.26,0-0.47,0.04-0.6,0.13
					c-0.08,0.04-0.11,0.23-0.11,0.87c0,0.08-0.04,0.13-0.08,0.17c-0.13,0.13-1.54,0.75-1.65,0.75c-0.12,0-0.25-0.15-0.25-0.26
					c0-0.55,0.41-1.05,1.58-1.81c0.7-0.45,1.62-0.7,1.88-0.7C82.82,12.7,83.34,13.3,83.62,13.71z M81.86,19.21
					c0.09-0.06,0.17-0.28,0.17-0.36c0.03-0.27,0.07-1.06,0.07-1.68c0-0.08-0.07-0.19-0.13-0.19c-0.32,0-1.18,0.28-1.53,0.49
					c-0.22,0.17-0.34,0.26-0.34,0.75c0,0.83,0.68,1.21,1.04,1.21C81.31,19.44,81.68,19.33,81.86,19.21z"/>
			</g>
		</g>
	</g>
</g>
</svg>
